# Rhino

v -78.362548828125 -77 60
v -78.362548828125 -77 27
v -63 -77 60
v -63 -77 27
v -63 -77 43.5
v -70.6812744140625 -77 27
v -78.362548828125 -77 43.5
v -63 -77 60
v -63 -77 27
v -63 -64.500007629394531 60
v -63 -64.500007629394531 27
v -63 -77 43.5
v -63 -70.750007629394531 27
v -63 -64.500007629394531 43.5
v -78.362548828125 -64.500007629394531 60
v -78.362548828125 -64.500007629394531 27
v -78.362548828125 -77 60
v -78.362548828125 -77 27
v -78.362548828125 -77 43.5
v -78.362548828125 -64.500007629394531 43.5
v -78.362548828125 -70.750007629394531 27
v -78.362548828125 -77 27
v -78.362548828125 -64.500007629394531 27
v -63 -77 27
v -70.6812744140625 -77 27
v -63 -70.750007629394531 27
v -63 -64.500007629394531 27
v -70.6812744140625 -64.500007629394531 27
v -78.362548828125 -70.750007629394531 27
v -95 34.5 -58
v -95 -64.500007629394531 -58
v -51.465732574462891 -64.500007629394531 -58
v -7.9314675331115723 -64.500007629394531 -58
v 14.350628852844238 -34.645481109619141 -58
v -14.350628852844238 -34.645481109619141 -58
v -95 -15.000004768371582 -58
v -34.645481109619141 -14.350628852844238 -58
v -34.645481109619141 14.350628852844238 -58
v 18.136844635009766 -38.431697845458984 -58
v -14.496110916137695 34.5 -58
v -95 34.5 60
v -95 34.5 -58
v -95 -64.500007629394531 60
v -95 -15.000004768371582 60
v -95 -64.500007629394531 1
v -95 34.5 1
v -95 -64.500007629394531 -58
v -95 -15.000004768371582 -58
v -95 -64.500007629394531 60
v -7.9314675331115723 -64.500007629394531 60
v -7.9314675331115723 -64.500007629394531 -58
v -78.362548828125 -64.500007629394531 60
v -7.9314675331115723 -64.500007629394531 1
v -51.465732574462891 -64.500007629394531 1
v -51.465732574462891 -64.500007629394531 30.5
v -73.232864379882812 -64.500007629394531 1
v -51.465732574462891 -64.500007629394531 -58
v -95 -64.500007629394531 -58
v -95 -64.500007629394531 1
v -63 -64.500007629394531 27
v -63 -64.500007629394531 43.5
v -63 -64.500007629394531 60
v -78.362548828125 -64.500007629394531 43.5
v -78.362548828125 -64.500007629394531 27
v -70.6812744140625 -64.500007629394531 27
v -73.232864379882812 -64.500007629394531 15.75
v -84.116432189941406 -64.500007629394531 1
v -84.116432189941406 -64.500007629394531 15.75
v -51.465732574462891 -64.500007629394531 -28.5
v -73.232864379882812 -64.500007629394531 -28.5
v -51.465732574462891 -64.500007629394531 15.75
v -62.349300384521484 -64.500007629394531 1
v -62.349300384521484 -64.500007629394531 15.75
v -29.698600769042969 -64.500007629394531 1
v -29.698600769042969 -64.500007629394531 30.5
v -95 34.5 60
v -78.362548828125 -77 60
v -63 -77 60
v -30.25 -21.25 60
v -30.25 -49.125 60
v -62.625 -21.25 60
v -62.625 -49.125 60
v -63 -64.500007629394531 60
v -95 -15.000004768371582 60
v -95 -64.500007629394531 60
v 34.5 -22.06854248046875 60
v 34.5 22.06854248046875 60
v 22.06854248046875 34.5 60
v -36.465728759765625 34.5 60
v -78.362548828125 -64.500007629394531 60
v -30.25 6.625 60
v 2.125 -21.25 60
v 2.125 6.625 60
v -7.9314675331115723 -64.500007629394531 60
v -34.645481109619141 14.350628852844238 0
v -34.645481109619141 14.350628852844238 -29
v -14.496110916137695 34.5 -58
v -14.496110916137695 34.5 -29
v -14.496110916137695 34.5 0
v -34.645481109619141 14.350628852844238 -58
v -34.645481109619141 14.350628852844238 0
v -34.645481109619141 -14.350628852844238 -58
v -34.645481109619141 14.350628852844238 -58
v -34.645481109619141 14.350628852844238 -29
v -34.645481109619141 -14.350628852844238 0
v -34.645481109619141 -14.350628852844238 -29
v -34.645481109619141 -14.350628852844238 0
v -14.350628852844238 -34.645481109619141 0
v -14.350628852844238 -34.645481109619141 -58
v -34.645481109619141 -14.350628852844238 -58
v -34.645481109619141 -14.350628852844238 -29
v -14.350628852844238 -34.645481109619141 -29
v -14.350628852844238 -34.645481109619141 0
v 14.350628852844238 -34.645481109619141 0
v 14.350628852844238 -34.645481109619141 -58
v -14.350628852844238 -34.645481109619141 -58
v -14.350628852844238 -34.645481109619141 -29
v 14.350628852844238 -34.645481109619141 -19.333333969116211
v 14.350628852844238 -34.645481109619141 -38.666667938232422
v 18.136844635009766 -38.431697845458984 0
v 14.350628852844238 -34.645481109619141 0
v 14.350628852844238 -34.645481109619141 -19.333333969116211
v 14.350628852844238 -34.645481109619141 -38.666667938232422
v 14.350628852844238 -34.645481109619141 -58
v 18.136844635009766 -38.431697845458984 -58
v 18.136844635009766 -38.431697845458984 -38.666667938232422
v 18.136844635009766 -38.431697845458984 -19.333333969116211
v -34.645481109619141 -14.350628852844238 0
v -14.350628852844238 -34.645481109619141 0
v 14.350628852844238 -34.645481109619141 0
v 3.7862155437469482 0 0
v 16.98179817199707 -13.195581436157227 0
v -9.4093656539916992 -13.195581436157227 0
v 3.7862155437469482 -26.391162872314453 0
v 10.384006500244141 -32.98895263671875 0
v 23.579587936401367 -19.793373107910156 0
v 10.384006500244141 -19.793373107910156 0
v 16.98179817199707 -26.391162872314453 0
v 16.98179817199707 13.195581436157227 0
v 30.177379608154297 0 0
v 18.136844635009766 -38.431697845458984 0
v 34.5 -22.06854248046875 0
v 34.5 22.06854248046875 0
v 22.06854248046875 34.5 0
v -14.496110916137695 34.5 0
v -34.645481109619141 14.350628852844238 0
v 34.5 -22.06854248046875 60
v 34.5 22.06854248046875 60
v 34.5 -22.06854248046875 0
v 34.5 22.06854248046875 0
v 34.5 22.06854248046875 30
v 34.5 -22.06854248046875 30
v -95 34.5 60
v -95 34.5 -58
v 22.06854248046875 34.5 60
v -36.465728759765625 34.5 60
v -95 34.5 1
v -14.496110916137695 34.5 -58
v -14.496110916137695 34.5 -29
v -14.496110916137695 34.5 0
v 22.06854248046875 34.5 0
v 22.06854248046875 34.5 30
v 22.06854248046875 34.5 60
v 34.5 22.06854248046875 60
v 34.5 22.06854248046875 0
v 22.06854248046875 34.5 0
v 22.06854248046875 34.5 30
v 34.5 22.06854248046875 30
v 34.5 -22.06854248046875 60
v -7.9314675331115723 -64.500007629394531 60
v -7.9314675331115723 -64.500007629394531 -58
v -7.9314675331115723 -64.500007629394531 1
v 18.136844635009766 -38.431697845458984 -58
v 18.136844635009766 -38.431697845458984 -38.666667938232422
v 18.136844635009766 -38.431697845458984 -19.333333969116211
v 18.136844635009766 -38.431697845458984 0
v 34.5 -22.06854248046875 0
v 34.5 -22.06854248046875 30
vt 0.56476563215255737 0.38037469983100891
vt 0.47154530882835388 0.38037469983100891
vt 0.56476563215255737 0.42230686545372009
vt 0.47154530882835388 0.42230686545372009
vt 0.51815551519393921 0.42230686545372009
vt 0.47154530882835388 0.4013407826423645
vt 0.51815551519393921 0.38037469983100891
vt 0.3333333432674408 0.38037469983100891
vt 0.3333333432674408 0.4735950231552124
vt 0.36864402890205383 0.38037469983100891
vt 0.36864402890205383 0.4735950231552124
vt 0.3333333432674408 0.42698484659194946
vt 0.35098868608474731 0.4735950231552124
vt 0.36864402890205383 0.42698484659194946
vt 0.37364763021469116 0.38037469983100891
vt 0.37364763021469116 0.4735950231552124
vt 0.40895834565162659 0.38037469983100891
vt 0.40895834565162659 0.4735950231552124
vt 0.40895834565162659 0.42698484659194946
vt 0.37364763021469116 0.42698484659194946
vt 0.39130297303199768 0.4735950231552124
vt 0.44927263259887695 0.38037469983100891
vt 0.41396191716194153 0.38037469983100891
vt 0.44927263259887695 0.42377170920372009
vt 0.44927263259887695 0.4020732045173645
vt 0.43161728978157043 0.42377170920372009
vt 0.41396191716194153 0.42377170920372009
vt 0.41396191716194153 0.4020732045173645
vt 0.43161728978157043 0.38037469983100891
vt 0.98626226186752319 0
vt 0.98626226186752319 0.27966105937957764
vt 0.86328411102294922 0.27966105937957764
vt 0.74030596017837524 0.27966105937957764
vt 0.67736220359802246 0.19532620906829834
vt 0.75843918323516846 0.19532620906829834
vt 0.98626226186752319 0.13983052968978882
vt 0.81576931476593018 0.1379961371421814
vt 0.81576931476593018 0.056919127702713013
vt 0.66666668653488159 0.2060217410326004
vt 0.75885015726089478 0
vt 0.99853515625 0.46440896391868591
vt 0.66666668653488159 0.46440896391868591
vt 0.99853515625 0.74406999349594116
vt 0.99853515625 0.60423946380615234
vt 0.83260089159011841 0.74406999349594116
vt 0.83260089159011841 0.46440896391868591
vt 0.66666668653488159 0.74406999349594116
vt 0.66666668653488159 0.60423946380615234
vt 0.3318684995174408 0.59964835643768311
vt 0.3318684995174408 0.84560465812683105
vt 0 0.84560465812683105
vt 0.3318684995174408 0.64664679765701294
vt 0.1659342497587204 0.84560465812683105
vt 0.1659342497587204 0.72262650728225708
vt 0.2489013671875 0.72262650728225708
vt 0.1659342497587204 0.66113740205764771
vt 0 0.72262650728225708
vt 0 0.59964835643768311
vt 0.1659342497587204 0.59964835643768311
vt 0.23905780911445618 0.69004380702972412
vt 0.28546315431594849 0.69004380702972412
vt 0.3318684995174408 0.69004380702972412
vt 0.28546315431594849 0.64664679765701294
vt 0.23905780911445618 0.64664679765701294
vt 0.23905780911445618 0.66834533214569092
vt 0.2074178010225296 0.66113740205764771
vt 0.1659342497587204 0.63039290904998779
vt 0.2074178010225296 0.63039290904998779
vt 0.082967124879360199 0.72262650728225708
vt 0.082967124879360199 0.66113740205764771
vt 0.2074178010225296 0.72262650728225708
vt 0.1659342497587204 0.69188195466995239
vt 0.2074178010225296 0.69188195466995239
vt 0.1659342497587204 0.78411555290222168
vt 0.2489013671875 0.78411555290222168
vt 0 0
vt 0.31497174501419067 0.046998456120491028
vt 0.31497174501419067 0.090395480394363403
vt 0.15748587250709534 0.18290960788726807
vt 0.23622880876064301 0.18290960788726807
vt 0.15748587250709534 0.091454803943634033
vt 0.23622880876064301 0.091454803943634033
vt 0.27966105937957764 0.090395480394363403
vt 0.13983052968978882 0
vt 0.27966105937957764 0
vt 0.15979814529418945 0.36581921577453613
vt 0.035117104649543762 0.36581921577453613
vt 0 0.33070209622383118
vt 0 0.16535104811191559
vt 0.27966105937957764 0.046998456120491028
vt 0.078742936253547668 0.18290960788726807
vt 0.15748587250709534 0.2743644118309021
vt 0.078742936253547668 0.2743644118309021
vt 0.27966105937957764 0.24595631659030914
vt 0.081077001988887787 0.38037469983100891
vt 0.081077001988887787 0.46229559183120728
vt 0.00058119575260207057 0.54421651363372803
vt 0.00058119575260207057 0.46229559183120728
vt 0.00058119575260207057 0.38037469983100891
vt 0.081077001988887787 0.54421651363372803
vt 0.083333335816860199 0.38037469983100891
vt 0.16441033780574799 0.54421651363372803
vt 0.083333335816860199 0.54421651363372803
vt 0.083333335816860199 0.46229559183120728
vt 0.16441033780574799 0.38037469983100891
vt 0.16441033780574799 0.46229559183120728
vt 0.1666666716337204 0.38037469983100891
vt 0.24774366617202759 0.38037469983100891
vt 0.24774366617202759 0.54421651363372803
vt 0.1666666716337204 0.54421651363372803
vt 0.1666666716337204 0.46229559183120728
vt 0.24774366617202759 0.46229559183120728
vt 0.25 0.38037469983100891
vt 0.33107700943946838 0.38037469983100891
vt 0.33107700943946838 0.54421651363372803
vt 0.25 0.54421651363372803
vt 0.25 0.46229559183120728
vt 0.33107700943946838 0.43498861789703369
vt 0.33107700943946838 0.48960256576538086
vt 0.45427623391151428 0.38037469983100891
vt 0.46940198540687561 0.38037469983100891
vt 0.46940198540687561 0.43498861789703369
vt 0.46940198540687561 0.48960256576538086
vt 0.46940198540687561 0.54421651363372803
vt 0.45427623391151428 0.54421651363372803
vt 0.45427623391151428 0.48960256576538086
vt 0.45427623391151428 0.43498861789703369
vt 0.53475546836853027 0.056931830942630768
vt 0.53475546836853027 0.1374455988407135
vt 0.47742536664009094 0.19437742233276367
vt 0.42932400107383728 0.10469905287027359
vt 0.42932400107383728 0.15704858303070068
vt 0.48203971982002258 0.10469905287027359
vt 0.48203971982002258 0.15704858303070068
vt 0.48203971982002258 0.18322333693504333
vt 0.42932400107383728 0.18322333693504333
vt 0.45568186044692993 0.15704858303070068
vt 0.45568186044692993 0.18322333693504333
vt 0.37660825252532959 0.10469905287027359
vt 0.37660825252532959 0.15704858303070068
vt 0.47742536664009094 0.20939810574054718
vt 0.41205531358718872 0.20939810574054718
vt 0.32389253377914429 0.12184775620698929
vt 0.32389253377914429 0.072529666125774384
vt 0.39692956209182739 0
vt 0.47742536664009094 0
vt 0.64244925975799561 0.59665101766586304
vt 0.64244925975799561 0.47343480587005615
vt 0.47295776009559631 0.59665101766586304
vt 0.47295776009559631 0.47343480587005615
vt 0.55770349502563477 0.47343480587005615
vt 0.55770349502563477 0.59665101766586304
vt 0.66520184278488159 0.92735308408737183
vt 0.3333333432674408 0.92735308408737183
vt 0.66520184278488159 0.59811586141586304
vt 0.66520184278488159 0.76273447275161743
vt 0.499267578125 0.92735308408737183
vt 0.3333333432674408 0.70094829797744751
vt 0.4148942232131958 0.70094829797744751
vt 0.49645513296127319 0.70094829797744751
vt 0.49645513296127319 0.59811586141586304
vt 0.58082848787307739 0.59811586141586304
vt 0.64244925975799561 0.42377170920372009
vt 0.64244925975799561 0.47196996212005615
vt 0.47295776009559631 0.47196996212005615
vt 0.47295776009559631 0.42377170920372009
vt 0.55770349502563477 0.42377170920372009
vt 0.55770349502563477 0.47196996212005615
vt 0.6572258472442627 0.21086294949054718
vt 0.6572258472442627 0.37890985608100891
vt 0.32389253377914429 0.37890985608100891
vt 0.49055919051170349 0.37890985608100891
vt 0.32389253377914429 0.27566808462142944
vt 0.37850645184516907 0.27566808462142944
vt 0.43312039971351624 0.27566808462142944
vt 0.48773431777954102 0.27566808462142944
vt 0.48773431777954102 0.21086294949054718
vt 0.57248008251190186 0.21086294949054718
vn 0 -1 0
vn 0 -1 0
vn 0 -1 0
vn 0 -1 0
vn 0 -1 0
vn 0 -1 0
vn 0 -1 0
vn 1 0 0
vn 1 0 0
vn 1 0 0
vn 1 0 0
vn 1 0 0
vn 1 0 0
vn 1 0 0
vn -1 0 0
vn -1 0 0
vn -1 0 0
vn -1 0 0
vn -1 0 0
vn -1 0 0
vn -1 0 0
vn 0 0 -1
vn 0 0 -1
vn 0 0 -1
vn 0 0 -1
vn 0 0 -1
vn 0 0 -1
vn 0 0 -1
vn 0 0 -1
vn 0 0 -1
vn 0 0 -1
vn 0 0 -1
vn 0 0 -1
vn 0 0 -1
vn 0 0 -1
vn 0 0 -1
vn 0 0 -1
vn 0 0 -1
vn 0 0 -1
vn 0 0 -1
vn -1 0 0
vn -1 0 0
vn -1 0 0
vn -1 0 0
vn -1 0 0
vn -1 0 0
vn -1 0 0
vn -1 0 0
vn 0 -1 0
vn 0 -1 0
vn 0 -1 0
vn 0 -1 0
vn 0 -1 0
vn 0 -1 0
vn 0 -1 0
vn 0 -1 0
vn 0 -1 0
vn 0 -1 0
vn 0 -1 0
vn 0 -1 0
vn 0 -1 0
vn 0 -1 0
vn 0 -1 0
vn 0 -1 0
vn 0 -1 0
vn 0 -1 0
vn 0 -1 0
vn 0 -1 0
vn 0 -1 0
vn 0 -1 0
vn 0 -1 0
vn 0 -1 0
vn 0 -1 0
vn 0 -1 0
vn 0 -1 0
vn 0 0 1
vn 0 0 1
vn 0 0 1
vn 0 0 1
vn 0 0 1
vn 0 0 1
vn 0 0 1
vn 0 0 1
vn 0 0 1
vn 0 0 1
vn 0 0 1
vn 0 0 1
vn 0 0 1
vn 0 0 1
vn 0 0 1
vn 0 0 1
vn 0 0 1
vn 0 0 1
vn 0 0 1
vn 0.70710676908493042 -0.70710676908493042 0
vn 0.70710676908493042 -0.70710676908493042 0
vn 0.70710676908493042 -0.70710676908493042 0
vn 0.70710676908493042 -0.70710676908493042 0
vn 0.70710676908493042 -0.70710676908493042 0
vn 0.70710676908493042 -0.70710676908493042 0
vn 1 0 0
vn 1 0 0
vn 1 0 0
vn 1 0 0
vn 1 0 0
vn 1 0 0
vn 0.70710676908493042 0.70710676908493042 0
vn 0.70710676908493042 0.70710676908493042 0
vn 0.70710676908493042 0.70710676908493042 0
vn 0.70710676908493042 0.70710676908493042 0
vn 0.70710676908493042 0.70710676908493042 0
vn 0.70710676908493042 0.70710676908493042 0
vn 0 1 0
vn 0 1 0
vn 0 1 0
vn 0 1 0
vn 0 1 0
vn 0 1 0
vn 0 1 0
vn 0.70710676908493042 0.70710676908493042 0
vn 0.70710676908493042 0.70710676908493042 0
vn 0.70710676908493042 0.70710676908493042 0
vn 0.70710676908493042 0.70710676908493042 0
vn 0.70710676908493042 0.70710676908493042 0
vn 0.70710676908493042 0.70710676908493042 0
vn 0.70710676908493042 0.70710676908493042 0
vn 0.70710676908493042 0.70710676908493042 0
vn 0 0 -1
vn 0 0 -1
vn 0 0 -1
vn 0 0 -1
vn 0 0 -1
vn 0 0 -1
vn 0 0 -1
vn 0 0 -1
vn 0 0 -1
vn 0 0 -1
vn 0 0 -1
vn 0 0 -1
vn 0 0 -1
vn 0 0 -1
vn 0 0 -1
vn 0 0 -1
vn 0 0 -1
vn 0 0 -1
vn 0 0 -1
vn 1 0 0
vn 1 0 0
vn 1 0 0
vn 1 0 0
vn 1 0 0
vn 1 0 0
vn 0 1 0
vn 0 1 0
vn 0 1 0
vn 0 1 0
vn 0 1 0
vn 0 1 0
vn 0 1 0
vn 0 1 0
vn 0 1 0
vn 0 1 0
vn 0.70710676908493042 0.70710676908493042 0
vn 0.70710676908493042 0.70710676908493042 0
vn 0.70710676908493042 0.70710676908493042 0
vn 0.70710676908493042 0.70710676908493042 0
vn 0.70710676908493042 0.70710676908493042 0
vn 0.70710676908493042 0.70710676908493042 0
vn 0.70710676908493042 -0.70710676908493042 0
vn 0.70710676908493042 -0.70710676908493042 0
vn 0.70710676908493042 -0.70710676908493042 0
vn 0.70710676908493042 -0.70710676908493042 0
vn 0.70710676908493042 -0.70710676908493042 0
vn 0.70710676908493042 -0.70710676908493042 0
vn 0.70710676908493042 -0.70710676908493042 0
vn 0.70710676908493042 -0.70710676908493042 0
vn 0.70710676908493042 -0.70710676908493042 0
vn 0.70710676908493042 -0.70710676908493042 0
f 7/7/7 5/5/5 3/3/3 1/1/1
f 6/6/6 7/7/7 2/2/2
f 7/7/7 6/6/6 5/5/5
f 5/5/5 6/6/6 4/4/4
f 12/12/12 14/14/14 10/10/10 8/8/8
f 13/13/13 12/12/12 9/9/9
f 12/12/12 13/13/13 14/14/14
f 14/14/14 13/13/13 11/11/11
f 20/20/20 19/19/19 17/17/17 15/15/15
f 21/21/21 20/20/20 16/16/16
f 20/20/20 21/21/21 19/19/19
f 19/19/19 21/21/21 18/18/18
f 25/25/25 29/29/29 28/28/28
f 29/29/29 23/23/23 28/28/28
f 25/25/25 22/22/22 29/29/29
f 26/26/26 24/24/24 25/25/25
f 26/26/26 28/28/28 27/27/27
f 25/25/25 28/28/28 26/26/26
f 39/39/39 33/33/33 34/34/34
f 35/35/35 34/34/34 33/33/33
f 32/32/32 35/35/35 33/33/33
f 38/38/38 37/37/37 36/36/36
f 40/40/40 38/38/38 30/30/30
f 30/30/30 38/38/38 36/36/36
f 31/31/31 36/36/36 32/32/32
f 37/37/37 32/32/32 36/36/36
f 35/35/35 32/32/32 37/37/37
f 46/46/46 44/44/44 41/41/41
f 46/46/46 42/42/42 48/48/48
f 48/48/48 44/44/44 46/46/46
f 48/48/48 47/47/47 45/45/45 44/44/44
f 43/43/43 44/44/44 45/45/45
f 72/72/72 69/69/69 54/54/54
f 70/70/70 72/72/72 56/56/56
f 69/69/69 72/72/72 70/70/70
f 54/54/54 71/71/71 73/73/73 72/72/72
f 72/72/72 73/73/73 66/66/66 56/56/56
f 56/56/56 66/66/66 68/68/68 67/67/67
f 71/71/71 75/75/75 55/55/55
f 74/74/74 71/71/71 54/54/54
f 75/75/75 71/71/71 74/74/74
f 64/64/64 63/63/63 49/49/49
f 52/52/52 49/49/49 63/63/63
f 68/68/68 64/64/64 49/49/49
f 66/66/66 65/65/65 64/64/64
f 65/65/65 66/66/66 73/73/73
f 70/70/70 59/59/59 58/58/58
f 49/49/49 59/59/59 68/68/68
f 68/68/68 59/59/59 67/67/67
f 67/67/67 70/70/70 56/56/56
f 59/59/59 70/70/70 67/67/67
f 66/66/66 64/64/64 68/68/68
f 57/57/57 70/70/70 58/58/58
f 65/65/65 73/73/73 60/60/60
f 60/60/60 71/71/71 55/55/55
f 62/62/62 61/61/61 55/55/55
f 61/61/61 60/60/60 55/55/55
f 55/55/55 75/75/75 62/62/62
f 50/50/50 62/62/62 75/75/75
f 53/53/53 50/50/50 75/75/75
f 73/73/73 71/71/71 60/60/60
f 74/74/74 54/54/54 69/69/69
f 51/51/51 53/53/53 74/74/74
f 51/51/51 69/69/69 57/57/57
f 74/74/74 69/69/69 51/51/51
f 74/74/74 53/53/53 75/75/75
f 69/69/69 70/70/70 57/57/57
f 93/93/93 91/91/91 79/79/79 92/92/92
f 79/79/79 81/81/81 82/82/82 80/80/80
f 78/78/78 83/83/83 90/90/90 77/77/77
f 82/82/82 85/85/85 90/90/90
f 81/81/81 76/76/76 84/84/84
f 84/84/84 82/82/82 81/81/81
f 83/83/83 80/80/80 82/82/82
f 82/82/82 84/84/84 85/85/85
f 82/82/82 90/90/90 83/83/83
f 91/91/91 76/76/76 81/81/81
f 79/79/79 91/91/91 81/81/81
f 92/92/92 79/79/79 80/80/80
f 92/92/92 94/94/94 86/86/86
f 93/93/93 92/92/92 86/86/86
f 80/80/80 94/94/94 92/92/92
f 80/80/80 83/83/83 94/94/94
f 93/93/93 89/89/89 91/91/91
f 91/91/91 89/89/89 76/76/76
f 88/88/88 93/93/93 87/87/87
f 86/86/86 87/87/87 93/93/93
f 89/89/89 93/93/93 88/88/88
f 98/98/98 99/99/99 95/95/95 96/96/96
f 100/100/100 97/97/97 98/98/98 96/96/96
f 104/104/104 101/101/101 105/105/105 106/106/106
f 103/103/103 104/104/104 106/106/106 102/102/102
f 111/111/111 107/107/107 108/108/108 112/112/112
f 110/110/110 111/111/111 112/112/112 109/109/109
f 117/117/117 113/113/113 114/114/114 118/118/118
f 116/116/116 117/117/117 119/119/119 115/115/115
f 117/117/117 118/118/118 119/119/119
f 121/121/121 120/120/120 127/127/127 122/122/122
f 122/122/122 127/127/127 126/126/126 123/123/123
f 124/124/124 123/123/123 126/126/126 125/125/125
f 138/138/138 137/137/137 132/132/132 136/136/136
f 135/135/135 134/134/134 137/137/137 138/138/138
f 137/137/137 131/131/131 132/132/132
f 133/133/133 137/137/137 134/134/134
f 131/131/131 137/137/137 133/133/133
f 132/132/132 131/131/131 139/139/139 140/140/140
f 143/143/143 139/139/139 144/144/144
f 145/145/145 144/144/144 139/139/139
f 139/139/139 131/131/131 145/145/145
f 145/145/145 131/131/131 133/133/133 146/146/146
f 142/142/142 140/140/140 143/143/143
f 140/140/140 139/139/139 143/143/143
f 142/142/142 136/136/136 140/140/140
f 132/132/132 140/140/140 136/136/136
f 138/138/138 136/136/136 142/142/142
f 128/128/128 146/146/146 133/133/133
f 133/133/133 129/129/129 128/128/128
f 134/134/134 129/129/129 133/133/133
f 141/141/141 130/130/130 138/138/138
f 135/135/135 138/138/138 130/130/130
f 130/130/130 129/129/129 135/135/135
f 129/129/129 134/134/134 135/135/135
f 142/142/142 141/141/141 138/138/138
f 151/151/151 148/148/148 147/147/147 152/152/152
f 150/150/150 151/151/151 152/152/152 149/149/149
f 162/162/162 161/161/161 160/160/160
f 154/154/154 159/159/159 158/158/158
f 156/156/156 155/155/155 162/162/162
f 157/157/157 153/153/153 156/156/156
f 159/159/159 154/154/154 157/157/157
f 156/156/156 160/160/160 157/157/157
f 160/160/160 159/159/159 157/157/157
f 162/162/162 160/160/160 156/156/156
f 167/167/167 163/163/163 164/164/164 168/168/168
f 166/166/166 167/167/167 168/168/168 165/165/165
f 178/178/178 176/176/176 177/177/177
f 171/171/171 173/173/173 174/174/174
f 176/176/176 178/178/178 169/169/169
f 176/176/176 170/170/170 172/172/172
f 175/175/175 176/176/176 172/172/172
f 171/171/171 175/175/175 172/172/172
f 174/174/174 175/175/175 171/171/171
f 169/169/169 170/170/170 176/176/176
