# Rhino

v 78.362548828125 -77 60
v 78.362548828125 -77 27
v 63 -77 60
v 63 -77 27
v 63 -77 43.5
v 70.6812744140625 -77 27
v 78.362548828125 -77 43.5
v 63 -77 60
v 63 -77 27
v 63 -64.500007629394531 60
v 63 -64.500007629394531 27
v 63 -77 43.5
v 63 -70.750007629394531 27
v 63 -64.500007629394531 43.5
v 78.362548828125 -64.500007629394531 60
v 78.362548828125 -64.500007629394531 27
v 78.362548828125 -77 60
v 78.362548828125 -77 27
v 78.362548828125 -77 43.5
v 78.362548828125 -64.500007629394531 43.5
v 78.362548828125 -70.750007629394531 27
v 78.362548828125 -77 27
v 78.362548828125 -64.500007629394531 27
v 63 -77 27
v 70.6812744140625 -77 27
v 63 -70.750007629394531 27
v 63 -64.500007629394531 27
v 70.6812744140625 -64.500007629394531 27
v 78.362548828125 -70.750007629394531 27
v 95 34.5 -58
v 95 -64.500007629394531 -58
v 51.465732574462891 -64.500007629394531 -58
v 7.9314675331115723 -64.500007629394531 -58
v -14.350628852844238 -34.645481109619141 -58
v 14.350628852844238 -34.645481109619141 -58
v 95 -15.000004768371582 -58
v 34.645481109619141 -14.350628852844238 -58
v 34.645481109619141 14.350628852844238 -58
v -18.136844635009766 -38.431697845458984 -58
v 14.496110916137695 34.5 -58
v 95 34.5 60
v 95 34.5 -58
v 95 -64.500007629394531 60
v 95 -15.000004768371582 60
v 95 -64.500007629394531 1
v 95 34.5 1
v 95 -64.500007629394531 -58
v 95 -15.000004768371582 -58
v 95 -64.500007629394531 60
v 7.9314675331115723 -64.500007629394531 60
v 7.9314675331115723 -64.500007629394531 -58
v 78.362548828125 -64.500007629394531 60
v 7.9314675331115723 -64.500007629394531 1
v 51.465732574462891 -64.500007629394531 1
v 51.465732574462891 -64.500007629394531 30.5
v 73.232864379882812 -64.500007629394531 1
v 51.465732574462891 -64.500007629394531 -58
v 95 -64.500007629394531 -58
v 95 -64.500007629394531 1
v 63 -64.500007629394531 27
v 63 -64.500007629394531 43.5
v 63 -64.500007629394531 60
v 78.362548828125 -64.500007629394531 43.5
v 78.362548828125 -64.500007629394531 27
v 70.6812744140625 -64.500007629394531 27
v 73.232864379882812 -64.500007629394531 15.75
v 84.116432189941406 -64.500007629394531 1
v 84.116432189941406 -64.500007629394531 15.75
v 51.465732574462891 -64.500007629394531 -28.5
v 73.232864379882812 -64.500007629394531 -28.5
v 51.465732574462891 -64.500007629394531 15.75
v 62.349300384521484 -64.500007629394531 1
v 62.349300384521484 -64.500007629394531 15.75
v 29.698600769042969 -64.500007629394531 1
v 29.698600769042969 -64.500007629394531 30.5
v 95 34.5 60
v 78.362548828125 -77 60
v 63 -77 60
v 30.25 -21.25 60
v 30.25 -49.125 60
v 62.625 -21.25 60
v 62.625 -49.125 60
v 63 -64.500007629394531 60
v 95 -15.000004768371582 60
v 95 -64.500007629394531 60
v -34.5 -22.06854248046875 60
v -34.5 22.06854248046875 60
v -22.06854248046875 34.5 60
v 36.465728759765625 34.5 60
v 78.362548828125 -64.500007629394531 60
v 30.25 6.625 60
v -2.125 -21.25 60
v -2.125 6.625 60
v 7.9314675331115723 -64.500007629394531 60
v 34.645481109619141 14.350628852844238 0
v 34.645481109619141 14.350628852844238 -29
v 14.496110916137695 34.5 -58
v 14.496110916137695 34.5 -29
v 14.496110916137695 34.5 0
v 34.645481109619141 14.350628852844238 -58
v 34.645481109619141 14.350628852844238 0
v 34.645481109619141 -14.350628852844238 -58
v 34.645481109619141 14.350628852844238 -58
v 34.645481109619141 14.350628852844238 -29
v 34.645481109619141 -14.350628852844238 0
v 34.645481109619141 -14.350628852844238 -29
v 34.645481109619141 -14.350628852844238 0
v 14.350628852844238 -34.645481109619141 0
v 14.350628852844238 -34.645481109619141 -58
v 34.645481109619141 -14.350628852844238 -58
v 34.645481109619141 -14.350628852844238 -29
v 14.350628852844238 -34.645481109619141 -29
v 14.350628852844238 -34.645481109619141 0
v -14.350628852844238 -34.645481109619141 0
v -14.350628852844238 -34.645481109619141 -58
v 14.350628852844238 -34.645481109619141 -58
v 14.350628852844238 -34.645481109619141 -29
v -14.350628852844238 -34.645481109619141 -19.333333969116211
v -14.350628852844238 -34.645481109619141 -38.666667938232422
v -18.136844635009766 -38.431697845458984 0
v -14.350628852844238 -34.645481109619141 0
v -14.350628852844238 -34.645481109619141 -19.333333969116211
v -14.350628852844238 -34.645481109619141 -38.666667938232422
v -14.350628852844238 -34.645481109619141 -58
v -18.136844635009766 -38.431697845458984 -58
v -18.136844635009766 -38.431697845458984 -38.666667938232422
v -18.136844635009766 -38.431697845458984 -19.333333969116211
v 34.645481109619141 -14.350628852844238 0
v 14.350628852844238 -34.645481109619141 0
v -14.350628852844238 -34.645481109619141 0
v -3.7862155437469482 0 0
v -16.98179817199707 -13.195581436157227 0
v 9.4093656539916992 -13.195581436157227 0
v -3.7862155437469482 -26.391162872314453 0
v -10.384006500244141 -32.98895263671875 0
v -23.579587936401367 -19.793373107910156 0
v -10.384006500244141 -19.793373107910156 0
v -16.98179817199707 -26.391162872314453 0
v -16.98179817199707 13.195581436157227 0
v -30.177379608154297 0 0
v -18.136844635009766 -38.431697845458984 0
v -34.5 -22.06854248046875 0
v -34.5 22.06854248046875 0
v -22.06854248046875 34.5 0
v 14.496110916137695 34.5 0
v 34.645481109619141 14.350628852844238 0
v -34.5 -22.06854248046875 60
v -34.5 22.06854248046875 60
v -34.5 -22.06854248046875 0
v -34.5 22.06854248046875 0
v -34.5 22.06854248046875 30
v -34.5 -22.06854248046875 30
v 95 34.5 60
v 95 34.5 -58
v -22.06854248046875 34.5 60
v 36.465728759765625 34.5 60
v 95 34.5 1
v 14.496110916137695 34.5 -58
v 14.496110916137695 34.5 -29
v 14.496110916137695 34.5 0
v -22.06854248046875 34.5 0
v -22.06854248046875 34.5 30
v -22.06854248046875 34.5 60
v -34.5 22.06854248046875 60
v -34.5 22.06854248046875 0
v -22.06854248046875 34.5 0
v -22.06854248046875 34.5 30
v -34.5 22.06854248046875 30
v -34.5 -22.06854248046875 60
v 7.9314675331115723 -64.500007629394531 60
v 7.9314675331115723 -64.500007629394531 -58
v 7.9314675331115723 -64.500007629394531 1
v -18.136844635009766 -38.431697845458984 -58
v -18.136844635009766 -38.431697845458984 -38.666667938232422
v -18.136844635009766 -38.431697845458984 -19.333333969116211
v -18.136844635009766 -38.431697845458984 0
v -34.5 -22.06854248046875 0
v -34.5 -22.06854248046875 30
vt 0.56476563215255737 0.38037469983100891
vt 0.47154530882835388 0.38037469983100891
vt 0.56476563215255737 0.42230686545372009
vt 0.47154530882835388 0.42230686545372009
vt 0.51815551519393921 0.42230686545372009
vt 0.47154530882835388 0.4013407826423645
vt 0.51815551519393921 0.38037469983100891
vt 0.3333333432674408 0.38037469983100891
vt 0.3333333432674408 0.4735950231552124
vt 0.36864402890205383 0.38037469983100891
vt 0.36864402890205383 0.4735950231552124
vt 0.3333333432674408 0.42698484659194946
vt 0.35098868608474731 0.4735950231552124
vt 0.36864402890205383 0.42698484659194946
vt 0.37364763021469116 0.38037469983100891
vt 0.37364763021469116 0.4735950231552124
vt 0.40895834565162659 0.38037469983100891
vt 0.40895834565162659 0.4735950231552124
vt 0.40895834565162659 0.42698484659194946
vt 0.37364763021469116 0.42698484659194946
vt 0.39130297303199768 0.4735950231552124
vt 0.44927263259887695 0.38037469983100891
vt 0.41396191716194153 0.38037469983100891
vt 0.44927263259887695 0.42377170920372009
vt 0.44927263259887695 0.4020732045173645
vt 0.43161728978157043 0.42377170920372009
vt 0.41396191716194153 0.42377170920372009
vt 0.41396191716194153 0.4020732045173645
vt 0.43161728978157043 0.38037469983100891
vt 0.98626226186752319 0
vt 0.98626226186752319 0.27966105937957764
vt 0.86328411102294922 0.27966105937957764
vt 0.74030596017837524 0.27966105937957764
vt 0.67736220359802246 0.19532620906829834
vt 0.75843918323516846 0.19532620906829834
vt 0.98626226186752319 0.13983052968978882
vt 0.81576931476593018 0.1379961371421814
vt 0.81576931476593018 0.056919127702713013
vt 0.66666668653488159 0.2060217410326004
vt 0.75885015726089478 0
vt 0.99853515625 0.46440896391868591
vt 0.66666668653488159 0.46440896391868591
vt 0.99853515625 0.74406999349594116
vt 0.99853515625 0.60423946380615234
vt 0.83260089159011841 0.74406999349594116
vt 0.83260089159011841 0.46440896391868591
vt 0.66666668653488159 0.74406999349594116
vt 0.66666668653488159 0.60423946380615234
vt 0.3318684995174408 0.59964835643768311
vt 0.3318684995174408 0.84560465812683105
vt 0 0.84560465812683105
vt 0.3318684995174408 0.64664679765701294
vt 0.1659342497587204 0.84560465812683105
vt 0.1659342497587204 0.72262650728225708
vt 0.2489013671875 0.72262650728225708
vt 0.1659342497587204 0.66113740205764771
vt 0 0.72262650728225708
vt 0 0.59964835643768311
vt 0.1659342497587204 0.59964835643768311
vt 0.23905780911445618 0.69004380702972412
vt 0.28546315431594849 0.69004380702972412
vt 0.3318684995174408 0.69004380702972412
vt 0.28546315431594849 0.64664679765701294
vt 0.23905780911445618 0.64664679765701294
vt 0.23905780911445618 0.66834533214569092
vt 0.2074178010225296 0.66113740205764771
vt 0.1659342497587204 0.63039290904998779
vt 0.2074178010225296 0.63039290904998779
vt 0.082967124879360199 0.72262650728225708
vt 0.082967124879360199 0.66113740205764771
vt 0.2074178010225296 0.72262650728225708
vt 0.1659342497587204 0.69188195466995239
vt 0.2074178010225296 0.69188195466995239
vt 0.1659342497587204 0.78411555290222168
vt 0.2489013671875 0.78411555290222168
vt 0 0
vt 0.31497174501419067 0.046998456120491028
vt 0.31497174501419067 0.090395480394363403
vt 0.15748587250709534 0.18290960788726807
vt 0.23622880876064301 0.18290960788726807
vt 0.15748587250709534 0.091454803943634033
vt 0.23622880876064301 0.091454803943634033
vt 0.27966105937957764 0.090395480394363403
vt 0.13983052968978882 0
vt 0.27966105937957764 0
vt 0.15979814529418945 0.36581921577453613
vt 0.035117104649543762 0.36581921577453613
vt 0 0.33070209622383118
vt 0 0.16535104811191559
vt 0.27966105937957764 0.046998456120491028
vt 0.078742936253547668 0.18290960788726807
vt 0.15748587250709534 0.2743644118309021
vt 0.078742936253547668 0.2743644118309021
vt 0.27966105937957764 0.24595631659030914
vt 0.081077001988887787 0.38037469983100891
vt 0.081077001988887787 0.46229559183120728
vt 0.00058119575260207057 0.54421651363372803
vt 0.00058119575260207057 0.46229559183120728
vt 0.00058119575260207057 0.38037469983100891
vt 0.081077001988887787 0.54421651363372803
vt 0.083333335816860199 0.38037469983100891
vt 0.16441033780574799 0.54421651363372803
vt 0.083333335816860199 0.54421651363372803
vt 0.083333335816860199 0.46229559183120728
vt 0.16441033780574799 0.38037469983100891
vt 0.16441033780574799 0.46229559183120728
vt 0.1666666716337204 0.38037469983100891
vt 0.24774366617202759 0.38037469983100891
vt 0.24774366617202759 0.54421651363372803
vt 0.1666666716337204 0.54421651363372803
vt 0.1666666716337204 0.46229559183120728
vt 0.24774366617202759 0.46229559183120728
vt 0.25 0.38037469983100891
vt 0.33107700943946838 0.38037469983100891
vt 0.33107700943946838 0.54421651363372803
vt 0.25 0.54421651363372803
vt 0.25 0.46229559183120728
vt 0.33107700943946838 0.43498861789703369
vt 0.33107700943946838 0.48960256576538086
vt 0.45427623391151428 0.38037469983100891
vt 0.46940198540687561 0.38037469983100891
vt 0.46940198540687561 0.43498861789703369
vt 0.46940198540687561 0.48960256576538086
vt 0.46940198540687561 0.54421651363372803
vt 0.45427623391151428 0.54421651363372803
vt 0.45427623391151428 0.48960256576538086
vt 0.45427623391151428 0.43498861789703369
vt 0.53475546836853027 0.056931830942630768
vt 0.53475546836853027 0.1374455988407135
vt 0.47742536664009094 0.19437742233276367
vt 0.42932400107383728 0.10469905287027359
vt 0.42932400107383728 0.15704858303070068
vt 0.48203971982002258 0.10469905287027359
vt 0.48203971982002258 0.15704858303070068
vt 0.48203971982002258 0.18322333693504333
vt 0.42932400107383728 0.18322333693504333
vt 0.45568186044692993 0.15704858303070068
vt 0.45568186044692993 0.18322333693504333
vt 0.37660825252532959 0.10469905287027359
vt 0.37660825252532959 0.15704858303070068
vt 0.47742536664009094 0.20939810574054718
vt 0.41205531358718872 0.20939810574054718
vt 0.32389253377914429 0.12184775620698929
vt 0.32389253377914429 0.072529666125774384
vt 0.39692956209182739 0
vt 0.47742536664009094 0
vt 0.64244925975799561 0.59665101766586304
vt 0.64244925975799561 0.47343480587005615
vt 0.47295776009559631 0.59665101766586304
vt 0.47295776009559631 0.47343480587005615
vt 0.55770349502563477 0.47343480587005615
vt 0.55770349502563477 0.59665101766586304
vt 0.66520184278488159 0.92735308408737183
vt 0.3333333432674408 0.92735308408737183
vt 0.66520184278488159 0.59811586141586304
vt 0.66520184278488159 0.76273447275161743
vt 0.499267578125 0.92735308408737183
vt 0.3333333432674408 0.70094829797744751
vt 0.4148942232131958 0.70094829797744751
vt 0.49645513296127319 0.70094829797744751
vt 0.49645513296127319 0.59811586141586304
vt 0.58082848787307739 0.59811586141586304
vt 0.64244925975799561 0.42377170920372009
vt 0.64244925975799561 0.47196996212005615
vt 0.47295776009559631 0.47196996212005615
vt 0.47295776009559631 0.42377170920372009
vt 0.55770349502563477 0.42377170920372009
vt 0.55770349502563477 0.47196996212005615
vt 0.6572258472442627 0.21086294949054718
vt 0.6572258472442627 0.37890985608100891
vt 0.32389253377914429 0.37890985608100891
vt 0.49055919051170349 0.37890985608100891
vt 0.32389253377914429 0.27566808462142944
vt 0.37850645184516907 0.27566808462142944
vt 0.43312039971351624 0.27566808462142944
vt 0.48773431777954102 0.27566808462142944
vt 0.48773431777954102 0.21086294949054718
vt 0.57248008251190186 0.21086294949054718
vn 0 -1 0
vn 0 -1 0
vn 0 -1 0
vn 0 -1 0
vn 0 -1 0
vn 0 -1 0
vn 0 -1 0
vn -1 0 0
vn -1 0 0
vn -1 0 0
vn -1 0 0
vn -1 0 0
vn -1 0 0
vn -1 0 0
vn 1 0 0
vn 1 0 0
vn 1 0 0
vn 1 0 0
vn 1 0 0
vn 1 0 0
vn 1 0 0
vn 0 0 -1
vn 0 0 -1
vn 0 0 -1
vn 0 0 -1
vn 0 0 -1
vn 0 0 -1
vn 0 0 -1
vn 0 0 -1
vn 0 0 -1
vn 0 0 -1
vn 0 0 -1
vn 0 0 -1
vn 0 0 -1
vn 0 0 -1
vn 0 0 -1
vn 0 0 -1
vn 0 0 -1
vn 0 0 -1
vn 0 0 -1
vn 1 0 0
vn 1 0 0
vn 1 0 0
vn 1 0 0
vn 1 0 0
vn 1 0 0
vn 1 0 0
vn 1 0 0
vn 0 -1 0
vn 0 -1 0
vn 0 -1 0
vn 0 -1 0
vn 0 -1 0
vn 0 -1 0
vn 0 -1 0
vn 0 -1 0
vn 0 -1 0
vn 0 -1 0
vn 0 -1 0
vn 0 -1 0
vn 0 -1 0
vn 0 -1 0
vn 0 -1 0
vn 0 -1 0
vn 0 -1 0
vn 0 -1 0
vn 0 -1 0
vn 0 -1 0
vn 0 -1 0
vn 0 -1 0
vn 0 -1 0
vn 0 -1 0
vn 0 -1 0
vn 0 -1 0
vn 0 -1 0
vn 0 0 1
vn 0 0 1
vn 0 0 1
vn 0 0 1
vn 0 0 1
vn 0 0 1
vn 0 0 1
vn 0 0 1
vn 0 0 1
vn 0 0 1
vn 0 0 1
vn 0 0 1
vn 0 0 1
vn 0 0 1
vn 0 0 1
vn 0 0 1
vn 0 0 1
vn 0 0 1
vn 0 0 1
vn -0.70710676908493042 -0.70710676908493042 0
vn -0.70710676908493042 -0.70710676908493042 0
vn -0.70710676908493042 -0.70710676908493042 0
vn -0.70710676908493042 -0.70710676908493042 0
vn -0.70710676908493042 -0.70710676908493042 0
vn -0.70710676908493042 -0.70710676908493042 0
vn -1 0 0
vn -1 0 0
vn -1 0 0
vn -1 0 0
vn -1 0 0
vn -1 0 0
vn -0.70710676908493042 0.70710676908493042 0
vn -0.70710676908493042 0.70710676908493042 0
vn -0.70710676908493042 0.70710676908493042 0
vn -0.70710676908493042 0.70710676908493042 0
vn -0.70710676908493042 0.70710676908493042 0
vn -0.70710676908493042 0.70710676908493042 0
vn 0 1 0
vn 0 1 0
vn 0 1 0
vn 0 1 0
vn 0 1 0
vn 0 1 0
vn 0 1 0
vn -0.70710676908493042 0.70710676908493042 0
vn -0.70710676908493042 0.70710676908493042 0
vn -0.70710676908493042 0.70710676908493042 0
vn -0.70710676908493042 0.70710676908493042 0
vn -0.70710676908493042 0.70710676908493042 0
vn -0.70710676908493042 0.70710676908493042 0
vn -0.70710676908493042 0.70710676908493042 0
vn -0.70710676908493042 0.70710676908493042 0
vn 0 0 -1
vn 0 0 -1
vn 0 0 -1
vn 0 0 -1
vn 0 0 -1
vn 0 0 -1
vn 0 0 -1
vn 0 0 -1
vn 0 0 -1
vn 0 0 -1
vn 0 0 -1
vn 0 0 -1
vn 0 0 -1
vn 0 0 -1
vn 0 0 -1
vn 0 0 -1
vn 0 0 -1
vn 0 0 -1
vn 0 0 -1
vn -1 0 0
vn -1 0 0
vn -1 0 0
vn -1 0 0
vn -1 0 0
vn -1 0 0
vn 0 1 0
vn 0 1 0
vn 0 1 0
vn 0 1 0
vn 0 1 0
vn 0 1 0
vn 0 1 0
vn 0 1 0
vn 0 1 0
vn 0 1 0
vn -0.70710676908493042 0.70710676908493042 0
vn -0.70710676908493042 0.70710676908493042 0
vn -0.70710676908493042 0.70710676908493042 0
vn -0.70710676908493042 0.70710676908493042 0
vn -0.70710676908493042 0.70710676908493042 0
vn -0.70710676908493042 0.70710676908493042 0
vn -0.70710676908493042 -0.70710676908493042 0
vn -0.70710676908493042 -0.70710676908493042 0
vn -0.70710676908493042 -0.70710676908493042 0
vn -0.70710676908493042 -0.70710676908493042 0
vn -0.70710676908493042 -0.70710676908493042 0
vn -0.70710676908493042 -0.70710676908493042 0
vn -0.70710676908493042 -0.70710676908493042 0
vn -0.70710676908493042 -0.70710676908493042 0
vn -0.70710676908493042 -0.70710676908493042 0
vn -0.70710676908493042 -0.70710676908493042 0
f 7/7/7 1/1/1 3/3/3 5/5/5
f 6/6/6 2/2/2 7/7/7
f 7/7/7 5/5/5 6/6/6
f 5/5/5 4/4/4 6/6/6
f 12/12/12 8/8/8 10/10/10 14/14/14
f 13/13/13 9/9/9 12/12/12
f 12/12/12 14/14/14 13/13/13
f 14/14/14 11/11/11 13/13/13
f 20/20/20 15/15/15 17/17/17 19/19/19
f 21/21/21 16/16/16 20/20/20
f 20/20/20 19/19/19 18/18/18 21/21/21
f 25/25/25 28/28/28 29/29/29
f 29/29/29 28/28/28 23/23/23
f 25/25/25 29/29/29 22/22/22
f 26/26/26 25/25/25 24/24/24
f 26/26/26 27/27/27 28/28/28
f 25/25/25 26/26/26 28/28/28
f 39/39/39 34/34/34 33/33/33
f 35/35/35 33/33/33 34/34/34
f 32/32/32 33/33/33 35/35/35
f 38/38/38 36/36/36 37/37/37
f 40/40/40 30/30/30 38/38/38
f 30/30/30 36/36/36 38/38/38
f 31/31/31 32/32/32 36/36/36
f 37/37/37 36/36/36 32/32/32
f 35/35/35 37/37/37 32/32/32
f 46/46/46 41/41/41 44/44/44
f 46/46/46 48/48/48 42/42/42
f 48/48/48 46/46/46 44/44/44
f 48/48/48 44/44/44 45/45/45 47/47/47
f 43/43/43 45/45/45 44/44/44
f 72/72/72 54/54/54 69/69/69
f 70/70/70 56/56/56 72/72/72
f 69/69/69 70/70/70 72/72/72
f 54/54/54 72/72/72 73/73/73 71/71/71
f 72/72/72 56/56/56 66/66/66 73/73/73
f 56/56/56 67/67/67 68/68/68 66/66/66
f 71/71/71 55/55/55 75/75/75
f 74/74/74 54/54/54 71/71/71
f 75/75/75 74/74/74 71/71/71
f 64/64/64 49/49/49 63/63/63
f 52/52/52 63/63/63 49/49/49
f 68/68/68 49/49/49 64/64/64
f 66/66/66 64/64/64 65/65/65
f 65/65/65 73/73/73 66/66/66
f 70/70/70 58/58/58 59/59/59
f 49/49/49 68/68/68 59/59/59
f 68/68/68 67/67/67 59/59/59
f 67/67/67 56/56/56 70/70/70
f 59/59/59 67/67/67 70/70/70
f 66/66/66 68/68/68 64/64/64
f 57/57/57 58/58/58 70/70/70
f 65/65/65 60/60/60 73/73/73
f 60/60/60 55/55/55 71/71/71
f 62/62/62 55/55/55 61/61/61
f 61/61/61 55/55/55 60/60/60
f 55/55/55 62/62/62 75/75/75
f 50/50/50 75/75/75 62/62/62
f 53/53/53 75/75/75 50/50/50
f 73/73/73 60/60/60 71/71/71
f 74/74/74 69/69/69 54/54/54
f 51/51/51 74/74/74 53/53/53
f 51/51/51 57/57/57 69/69/69
f 74/74/74 51/51/51 69/69/69
f 74/74/74 75/75/75 53/53/53
f 69/69/69 57/57/57 70/70/70
f 93/93/93 92/92/92 79/79/79 91/91/91
f 79/79/79 80/80/80 82/82/82 81/81/81
f 78/78/78 77/77/77 90/90/90 83/83/83
f 82/82/82 90/90/90 85/85/85
f 81/81/81 84/84/84 76/76/76
f 84/84/84 81/81/81 82/82/82
f 83/83/83 82/82/82 80/80/80
f 82/82/82 85/85/85 84/84/84
f 82/82/82 83/83/83 90/90/90
f 91/91/91 81/81/81 76/76/76
f 79/79/79 81/81/81 91/91/91
f 92/92/92 80/80/80 79/79/79
f 92/92/92 86/86/86 94/94/94
f 93/93/93 86/86/86 92/92/92
f 80/80/80 92/92/92 94/94/94
f 80/80/80 94/94/94 83/83/83
f 93/93/93 91/91/91 89/89/89
f 91/91/91 76/76/76 89/89/89
f 88/88/88 87/87/87 93/93/93
f 86/86/86 93/93/93 87/87/87
f 89/89/89 88/88/88 93/93/93
f 98/98/98 96/96/96 95/95/95 99/99/99
f 100/100/100 96/96/96 98/98/98 97/97/97
f 104/104/104 106/106/106 105/105/105 101/101/101
f 103/103/103 102/102/102 106/106/106 104/104/104
f 111/111/111 112/112/112 108/108/108 107/107/107
f 110/110/110 109/109/109 112/112/112 111/111/111
f 117/117/117 118/118/118 114/114/114 113/113/113
f 116/116/116 115/115/115 119/119/119 117/117/117
f 117/117/117 119/119/119 118/118/118
f 121/121/121 122/122/122 127/127/127 120/120/120
f 122/122/122 123/123/123 126/126/126 127/127/127
f 124/124/124 125/125/125 126/126/126 123/123/123
f 138/138/138 136/136/136 132/132/132 137/137/137
f 135/135/135 138/138/138 137/137/137 134/134/134
f 137/137/137 132/132/132 131/131/131
f 133/133/133 134/134/134 137/137/137
f 131/131/131 133/133/133 137/137/137
f 132/132/132 140/140/140 139/139/139 131/131/131
f 143/143/143 144/144/144 139/139/139
f 145/145/145 139/139/139 144/144/144
f 139/139/139 145/145/145 131/131/131
f 145/145/145 146/146/146 133/133/133 131/131/131
f 142/142/142 143/143/143 140/140/140
f 140/140/140 143/143/143 139/139/139
f 142/142/142 140/140/140 136/136/136
f 132/132/132 136/136/136 140/140/140
f 138/138/138 142/142/142 136/136/136
f 128/128/128 133/133/133 146/146/146
f 133/133/133 128/128/128 129/129/129
f 134/134/134 133/133/133 129/129/129
f 141/141/141 138/138/138 130/130/130
f 135/135/135 130/130/130 138/138/138
f 130/130/130 135/135/135 129/129/129
f 129/129/129 135/135/135 134/134/134
f 142/142/142 138/138/138 141/141/141
f 151/151/151 152/152/152 147/147/147 148/148/148
f 150/150/150 149/149/149 152/152/152 151/151/151
f 162/162/162 160/160/160 161/161/161
f 154/154/154 158/158/158 159/159/159
f 156/156/156 162/162/162 155/155/155
f 157/157/157 156/156/156 153/153/153
f 159/159/159 157/157/157 154/154/154
f 156/156/156 157/157/157 160/160/160
f 160/160/160 157/157/157 159/159/159
f 162/162/162 156/156/156 160/160/160
f 167/167/167 168/168/168 164/164/164 163/163/163
f 166/166/166 165/165/165 168/168/168 167/167/167
f 178/178/178 177/177/177 176/176/176
f 171/171/171 174/174/174 173/173/173
f 176/176/176 169/169/169 178/178/178
f 176/176/176 172/172/172 170/170/170
f 175/175/175 172/172/172 176/176/176
f 171/171/171 172/172/172 175/175/175
f 174/174/174 171/171/171 175/175/175
f 169/169/169 176/176/176 170/170/170
